<svg xmlns="http://www.w3.org/2000/svg" width="86" height="86" viewBox="0 0 86 86"><defs><style>.a,.f{fill:#fff;}.a{opacity:0;}.b{fill:#eafbf2;}.c{fill:#6dd29b;}.d{fill:#1cd16e;}.e,.h{fill:none;}.e,.f{stroke:#1cd16e;}.g{stroke:none;}</style></defs><rect class="a" width="86" height="86"/><g transform="translate(-559.449 -352.451)"><path class="b" d="M40.888,0H8.15C7.239,0,6.5.739,6.5,2.173V62.04a1.7,1.7,0,0,0,1.65,1.128h45.2a1.7,1.7,0,0,0,1.65-1.128v-47.4c0-.785-.1-1.038-.29-1.224L41.59.29A1,1,0,0,0,40.888,0Z" transform="translate(562.95 364.247)"/><path class="c" d="M37.5.151V13.517H50.866Z" transform="translate(566.894 364.266)"/><path class="c" d="M53.355,58.176H8.15a1.65,1.65,0,0,1-1.65-1.65V39H55.005V56.526A1.65,1.65,0,0,1,53.355,58.176Z" transform="translate(562.95 369.239)"/><path class="d" d="M7.608,6.859a.686.686,0,0,0,.711-.653V4.05A3.874,3.874,0,0,0,7.181,1.241,4.381,4.381,0,0,0,4.124,0h0A4.407,4.407,0,0,0,1.209,1.176,3.982,3.982,0,0,0,0,4.05V14.437a3.874,3.874,0,0,0,1.138,2.809,4.639,4.639,0,0,0,2.844,1.241h.142a4.139,4.139,0,0,0,2.915-1.176A3.946,3.946,0,0,0,8.248,14.5V9.6a.572.572,0,0,0-.213-.457.673.673,0,0,0-.5-.2H7.466a.736.736,0,0,0-.711.653v4.965a2.718,2.718,0,0,1-.782,1.894,2.645,2.645,0,0,1-1.92.784,2.938,2.938,0,0,1-1.92-.784,3.7,3.7,0,0,1-.711-2.025V4.05A2.718,2.718,0,0,1,2.2,2.156a3.176,3.176,0,0,1,1.92-.849,2.938,2.938,0,0,1,1.92.784,2.349,2.349,0,0,1,.782,1.96V6.271A.759.759,0,0,0,7.608,6.859Z" transform="translate(573.413 355.452)"/><path class="e" d="M40.888,0H8.15C7.239,0,6.5.739,6.5,2.173V62.04a1.7,1.7,0,0,0,1.65,1.128h45.2a1.7,1.7,0,0,0,1.65-1.128v-47.4c0-.785-.1-1.038-.29-1.224L41.59.29A1,1,0,0,0,40.888,0Z" transform="translate(562.949 364.247)"/><g transform="translate(600.378 400.381)"><g class="f"><ellipse class="g" cx="17.535" cy="17.535" rx="17.535" ry="17.535"/><ellipse class="h" cx="17.535" cy="17.535" rx="17.035" ry="17.035"/></g><ellipse class="b" cx="12.162" cy="12.161" rx="12.162" ry="12.161" transform="translate(5.228 5.226)"/><path class="d" d="M5.276,9.79,0,5.147l1.524-1.74L5.06,6.527,10.7,0l1.74,1.51Z" transform="translate(11.324 13.065)"/></g></g></svg>