<svg width="139" height="27" viewBox="0 0 139 27" fill="none" xmlns="http://www.w3.org/2000/svg">
<g clip-path="url(#clip0_606_2170)">
<mask id="mask0_606_2170" style="mask-type:luminance" maskUnits="userSpaceOnUse" x="0" y="3" width="139" height="24">
<path d="M138.462 3H0V27H138.462V3Z" fill="white"/>
</mask>
<g mask="url(#mask0_606_2170)">
<path d="M2.89514 15.657V13.9101H6.24415C6.89616 13.9101 7.46916 13.7997 7.9631 13.5788C8.45705 13.358 8.84234 13.0468 9.11896 12.6452C9.39558 12.2235 9.53388 11.7216 9.53388 11.1393C9.53388 10.2558 9.22762 9.57319 8.61512 9.09131C8.00263 8.60942 7.21229 8.36848 6.24415 8.36848H3.72498V23.608H6.62943C7.41975 23.608 8.12118 23.4775 8.73367 23.2165C9.34617 22.9555 9.83025 22.5639 10.1859 22.0419C10.5415 21.5198 10.7194 20.8673 10.7194 20.0842C10.7194 19.5221 10.6107 19.0301 10.3934 18.6085C10.1958 18.1668 9.90928 17.8054 9.53388 17.5242C9.17823 17.2231 8.75342 17.0122 8.25948 16.8918C7.76553 16.7512 7.22217 16.681 6.62943 16.681H2.89514V14.7233H6.83689C7.84456 14.7233 8.79295 14.8337 9.68207 15.0546C10.5712 15.2755 11.3615 15.6168 12.053 16.0786C12.7643 16.5404 13.3176 17.1327 13.7127 17.8555C14.1079 18.5784 14.3055 19.4417 14.3055 20.4457C14.3055 21.8311 13.9795 22.9755 13.3274 23.8791C12.6952 24.7826 11.8159 25.4552 10.6897 25.897C9.58327 26.3186 8.299 26.5294 6.83689 26.5294H0.227783V5.44707H6.48124C7.78528 5.44707 8.93125 5.63782 9.91916 6.01931C10.9268 6.40079 11.7073 6.98307 12.2605 7.76613C12.8335 8.54919 13.12 9.54307 13.12 10.7478C13.12 11.7918 12.8335 12.6854 12.2605 13.4282C11.7073 14.1511 10.9268 14.7032 9.91916 15.0847C8.93125 15.4662 7.78528 15.657 6.48124 15.657H2.89514ZM17.7318 3.03766H20.9326V26.5294H17.7318V3.03766ZM28.3151 21.1082C28.3151 22.0921 28.5226 22.8551 28.9375 23.3972C29.3524 23.9393 29.9847 24.2104 30.8343 24.2104C31.4467 24.2104 31.9802 24.0899 32.4347 23.849C32.8892 23.5879 33.2448 23.2265 33.5016 22.7647C33.7584 22.2828 33.8869 21.7307 33.8869 21.1082V12.6753H37.0877V26.5294H33.8869V24.3911C33.4523 25.1942 32.8892 25.8066 32.1976 26.2282C31.5259 26.6299 30.7157 26.8306 29.7673 26.8306C28.2459 26.8306 27.0703 26.3487 26.2405 25.385C25.4303 24.4212 25.0254 23.1161 25.0254 21.4697V12.6753H28.3151V21.1082ZM47.1028 26.8306C45.7198 26.8306 44.4947 26.5294 43.4278 25.9271C42.3805 25.3247 41.5706 24.4814 40.9975 23.3972C40.4245 22.313 40.138 21.048 40.138 19.6024C40.138 18.1366 40.4245 16.8617 40.9975 15.7774C41.5903 14.6932 42.4201 13.8599 43.4871 13.2777C44.554 12.6753 45.8087 12.3741 47.251 12.3741C48.6933 12.3741 49.9183 12.6552 50.926 13.2174C51.9337 13.7796 52.7042 14.5928 53.2377 15.657C53.7909 16.701 54.0676 17.966 54.0676 19.4518C54.0676 19.6124 54.0576 19.7831 54.0379 19.9638C54.0379 20.1445 54.028 20.275 54.0083 20.3553H42.0348V18.1266H51.2816L50.3036 19.512C50.3629 19.3915 50.4222 19.2309 50.4814 19.0301C50.5604 18.8093 50.6 18.6286 50.6 18.488C50.6 17.7451 50.4518 17.1026 50.1554 16.5605C49.8787 16.0184 49.4837 15.5967 48.9699 15.2955C48.4761 14.9944 47.893 14.8438 47.2213 14.8438C46.4112 14.8438 45.7198 15.0245 45.1467 15.3859C44.5737 15.7473 44.1391 16.2694 43.8427 16.952C43.5463 17.6347 43.3882 18.478 43.3685 19.4819C43.3685 20.4858 43.5167 21.3391 43.8131 22.0419C44.1094 22.7246 44.544 23.2466 45.1171 23.608C45.7098 23.9694 46.4211 24.1501 47.251 24.1501C48.1204 24.1501 48.881 23.9694 49.5331 23.608C50.1851 23.2466 50.7285 22.6944 51.1631 21.9515L53.9194 23.096C53.2081 24.3409 52.2893 25.2745 51.1631 25.897C50.0369 26.5194 48.6835 26.8306 47.1028 26.8306Z" fill="#808080"/>
<path d="M60.0569 15.657V13.9101H63.4059C64.0579 13.9101 64.631 13.7997 65.1249 13.5788C65.6187 13.358 66.004 13.0468 66.2807 12.6452C66.5574 12.2235 66.6956 11.7216 66.6956 11.1393C66.6956 10.2558 66.3893 9.57319 65.7769 9.09131C65.1644 8.60942 64.374 8.36848 63.4059 8.36848H60.8867V23.608H63.7912C64.5814 23.608 65.283 23.4775 65.8954 23.2165C66.5078 22.9555 66.992 22.5639 67.3476 22.0419C67.7033 21.5198 67.8811 20.8673 67.8811 20.0842C67.8811 19.5221 67.7725 19.0301 67.5551 18.6085C67.3576 18.1668 67.071 17.8054 66.6956 17.5242C66.34 17.2231 65.9151 17.0122 65.4212 16.8918C64.9273 16.7512 64.3839 16.681 63.7912 16.681H60.0569V14.7233H63.9986C65.0063 14.7233 65.9547 14.8337 66.8438 15.0546C67.7329 15.2755 68.5232 15.6168 69.2148 16.0786C69.9261 16.5404 70.4792 17.1327 70.8745 17.8555C71.2697 18.5784 71.4672 19.4417 71.4672 20.4457C71.4672 21.8311 71.1412 22.9755 70.4892 23.8791C69.8569 24.7826 68.9777 25.4552 67.8515 25.897C66.7449 26.3186 65.4608 26.5294 63.9986 26.5294H57.3895V5.44707H63.643C64.947 5.44707 66.0929 5.63782 67.0809 6.01931C68.0886 6.40079 68.8691 6.98307 69.4223 7.76613C69.9953 8.54919 70.2817 9.54307 70.2817 10.7478C70.2817 11.7918 69.9953 12.6854 69.4223 13.4282C68.8691 14.1511 68.0886 14.7032 67.0809 15.0847C66.0929 15.4662 64.947 15.657 63.643 15.657H60.0569ZM76.9089 22.2226C76.9089 22.6844 77.0175 23.086 77.2349 23.4273C77.4523 23.7486 77.7487 23.9895 78.124 24.1501C78.5193 24.3108 78.9638 24.3911 79.4577 24.3911C80.09 24.3911 80.6629 24.2606 81.1767 23.9995C81.7101 23.7385 82.135 23.357 82.4511 22.8551C82.787 22.333 82.9549 21.7307 82.9549 21.048L83.4291 22.8551C83.4291 23.7385 83.1723 24.4814 82.6585 25.0838C82.1647 25.6661 81.5323 26.1078 80.7617 26.409C80.0109 26.6901 79.2403 26.8306 78.45 26.8306C77.6005 26.8306 76.81 26.66 76.0791 26.3186C75.3481 25.9773 74.7651 25.4753 74.3305 24.8127C73.8959 24.1501 73.6784 23.347 73.6784 22.4033C73.6784 21.0581 74.1427 19.9939 75.0714 19.2108C76.0001 18.4077 77.3139 18.0061 79.0131 18.0061C79.9219 18.0061 80.7025 18.1065 81.3545 18.3073C82.0262 18.5081 82.5796 18.749 83.0142 19.0301C83.4488 19.2911 83.7551 19.5321 83.9329 19.753V21.4094C83.3205 20.9677 82.6685 20.6464 81.9769 20.4457C81.2853 20.2449 80.5543 20.1445 79.7837 20.1445C79.112 20.1445 78.5686 20.2348 78.1537 20.4155C77.7387 20.5762 77.4227 20.8071 77.2053 21.1082C77.0078 21.4094 76.9089 21.7809 76.9089 22.2226ZM75.9012 16.2894L74.5972 14.0005C75.2096 13.619 76.0001 13.2475 76.9682 12.8861C77.9562 12.5247 79.0824 12.344 80.3468 12.344C81.473 12.344 82.461 12.5147 83.3105 12.856C84.18 13.1974 84.8616 13.6893 85.3555 14.3318C85.8494 14.9542 86.0964 15.7272 86.0964 16.6508V26.5294H82.9549V17.2833C82.9549 16.8416 82.8759 16.4802 82.7178 16.1991C82.5796 15.918 82.3818 15.6871 82.1251 15.5064C81.8683 15.3257 81.562 15.1951 81.2063 15.1148C80.8507 15.0345 80.4654 14.9944 80.0505 14.9944C79.4181 14.9944 78.8156 15.0747 78.2426 15.2353C77.6894 15.3758 77.2053 15.5566 76.7903 15.7774C76.3951 15.9782 76.0987 16.1489 75.9012 16.2894ZM90.4503 21.9817C90.8849 22.4635 91.3198 22.8852 91.7544 23.2466C92.2089 23.5879 92.6632 23.849 93.1177 24.0297C93.5722 24.1903 94.0265 24.2706 94.481 24.2706C95.0541 24.2706 95.4986 24.1401 95.8147 23.8791C96.1507 23.6181 96.3185 23.2566 96.3185 22.7948C96.3185 22.3933 96.19 22.0519 95.9332 21.7708C95.6765 21.4697 95.3208 21.2187 94.8663 21.0179C94.4118 20.797 93.8783 20.5762 93.2659 20.3553C92.6535 20.1144 92.0408 19.8333 91.4284 19.512C90.8356 19.1707 90.3418 18.729 89.9465 18.1868C89.5712 17.6447 89.3834 16.9621 89.3834 16.1388C89.3834 15.2955 89.5909 14.5928 90.0058 14.0306C90.4404 13.4684 91.0135 13.0568 91.7247 12.7958C92.4557 12.5147 93.2362 12.3741 94.0661 12.3741C94.817 12.3741 95.5183 12.4846 96.1703 12.7054C96.842 12.9263 97.4447 13.2174 97.9782 13.5788C98.5117 13.9402 98.9662 14.3518 99.3415 14.8137L97.5633 16.7412C97.1088 16.1991 96.5656 15.7574 95.9332 15.416C95.3009 15.0747 94.6489 14.904 93.9772 14.904C93.5227 14.904 93.1473 15.0044 92.851 15.2052C92.5546 15.406 92.4064 15.6971 92.4064 16.0786C92.4064 16.3998 92.5349 16.691 92.7917 16.952C93.0684 17.193 93.424 17.4138 93.8586 17.6146C94.3131 17.8154 94.817 18.0262 95.3701 18.2471C96.121 18.5482 96.8124 18.8795 97.4447 19.241C98.0771 19.6024 98.5809 20.0441 98.9562 20.5661C99.3515 21.0882 99.549 21.7708 99.549 22.6141C99.549 23.9192 99.1044 24.9734 98.2153 25.7765C97.3459 26.5595 96.1604 26.9511 94.6588 26.9511C93.7301 26.9511 92.8706 26.8106 92.0804 26.5294C91.3098 26.2282 90.6282 25.8468 90.0354 25.385C89.4624 24.9031 88.9784 24.4011 88.5832 23.8791L90.4503 21.9817ZM102.271 3.03766H105.412V26.5294H102.271V3.03766ZM110.421 12.6753H114.333L108.465 18.3977L114.926 26.5294H111.043L104.523 18.3977L110.421 12.6753ZM122.556 26.8306C121.173 26.8306 119.948 26.5294 118.881 25.9271C117.834 25.3247 117.024 24.4814 116.451 23.3972C115.878 22.313 115.592 21.048 115.592 19.6024C115.592 18.1366 115.878 16.8617 116.451 15.7774C117.044 14.6932 117.874 13.8599 118.941 13.2777C120.007 12.6753 121.262 12.3741 122.704 12.3741C124.147 12.3741 125.372 12.6552 126.379 13.2174C127.387 13.7796 128.158 14.5928 128.691 15.657C129.244 16.701 129.521 17.966 129.521 19.4518C129.521 19.6124 129.511 19.7831 129.491 19.9638C129.491 20.1445 129.481 20.275 129.462 20.3553H117.488V18.1266H126.735L125.757 19.512C125.816 19.3915 125.876 19.2309 125.935 19.0301C126.014 18.8093 126.053 18.6286 126.053 18.488C126.053 17.7451 125.905 17.1026 125.609 16.5605C125.332 16.0184 124.937 15.5967 124.423 15.2955C123.93 14.9944 123.347 14.8438 122.675 14.8438C121.865 14.8438 121.173 15.0245 120.6 15.3859C120.027 15.7473 119.593 16.2694 119.296 16.952C119 17.6347 118.842 18.478 118.822 19.4819C118.822 20.4858 118.97 21.3391 119.267 22.0419C119.563 22.7246 119.998 23.2466 120.571 23.608C121.163 23.9694 121.875 24.1501 122.704 24.1501C123.574 24.1501 124.335 23.9694 124.987 23.608C125.639 23.2466 126.182 22.6944 126.617 21.9515L129.373 23.096C128.662 24.3409 127.743 25.2745 126.617 25.897C125.49 26.5194 124.137 26.8306 122.556 26.8306ZM130.679 12.6753H138.415V15.5365H130.679V12.6753ZM132.962 7.85648H136.133V26.5294H132.962V7.85648Z" fill="#36B37E"/>
</g>
<path fill-rule="evenodd" clip-rule="evenodd" d="M29.0197 9.60754C29.2191 4.53826 33.3917 0.489807 38.5098 0.489807C43.628 0.489807 47.8006 4.53826 48 9.60754H44.9899C44.8009 5.92411 41.9675 3 38.5 3C35.0324 3 32.1991 5.92411 32.01 9.60754H29.0197Z" fill="#36B37E"/>
</g>
<defs>
<clipPath id="clip0_606_2170">
<rect width="139" height="27" fill="white"/>
</clipPath>
</defs>
</svg>
