<svg xmlns="http://www.w3.org/2000/svg" width="100" height="100" viewBox="0 0 100 100">
  <g id="Warning_svg" data-name="Warning svg" transform="translate(-647.294 -294)">
    <path id="Path_2006" data-name="Path 2006" d="M128.159,88.079A40.079,40.079,0,1,1,88.079,48,40.079,40.079,0,0,1,128.159,88.079Zm0,0" transform="translate(609.215 255.921)" fill="#ffedc4"/>
    <path id="Path_2008" data-name="Path 2008" d="M178.989,162.989H136L157.495,120Zm0,0" transform="translate(539.8 199.152)" fill="#ffc53e"/>
    <path id="Path_2009" data-name="Path 2009" d="M233.653,205.227A1.653,1.653,0,0,1,232,203.574v-9.921a1.653,1.653,0,0,1,3.307,0v9.921A1.654,1.654,0,0,1,233.653,205.227Zm0,0" transform="translate(463.641 142.049)" fill="#fff"/>
    <path id="Path_2010" data-name="Path 2010" d="M235.307,273.653A1.653,1.653,0,1,1,233.653,272,1.654,1.654,0,0,1,235.307,273.653Zm0,0" transform="translate(463.641 78.682)" fill="#fff"/>
    <g id="Ellipse_116" data-name="Ellipse 116" transform="translate(647.294 294)" fill="none" stroke="#ffc53e" stroke-width="1">
      <circle cx="50" cy="50" r="50" stroke="none"/>
      <circle cx="50" cy="50" r="49.5" fill="none"/>
    </g>
  </g>
</svg>
